<?xml version="1.0" encoding="us-ascii" standalone="no"?><svg xmlns="http://www.w3.org/2000/svg" xmlns:xlink="http://www.w3.org/1999/xlink" contentStyleType="text/css" height="145px" preserveAspectRatio="none" style="width:393px;height:145px;background:#FFFFFF;" version="1.1" viewBox="0 0 393 145" width="393px" zoomAndPan="magnify"><defs/><g><!--class url--><g id="elem_url"><rect codeLine="10" fill="#FFFFFF" height="119.125" id="url" rx="2.5" ry="2.5" style="stroke:#000000;stroke-width:1.0;" width="367" x="12" y="12"/><ellipse cx="181.75" cy="26.3125" fill="#FFFFFF" rx="9" ry="9" style="stroke:#000000;stroke-width:1.0;"/><path d="M184.7188,31.9531 Q184.1406,32.25 183.5,32.3906 Q182.8594,32.5469 182.1563,32.5469 Q179.6563,32.5469 178.3281,30.9063 Q177.0156,29.25 177.0156,26.125 Q177.0156,23 178.3281,21.3438 Q179.6563,19.6875 182.1563,19.6875 Q182.8594,19.6875 183.5,19.8438 Q184.1563,20 184.7188,20.2969 L184.7188,23.0156 Q184.0938,22.4375 183.5,22.1719 Q182.9063,21.8906 182.2813,21.8906 Q180.9375,21.8906 180.25,22.9688 Q179.5625,24.0313 179.5625,26.125 Q179.5625,28.2188 180.25,29.2969 Q180.9375,30.3594 182.2813,30.3594 Q182.9063,30.3594 183.5,30.0938 Q184.0938,29.8125 184.7188,29.2344 L184.7188,31.9531 Z " fill="#000000"/><text fill="#000000" font-family="Verdana" font-size="16" lengthAdjust="spacing" textLength="20" x="199.25" y="31.8516">url</text><line style="stroke:#000000;stroke-width:1.0;" x1="13" x2="378" y1="40.625" y2="40.625"/><text fill="#000000" font-family="Verdana" font-size="16" lengthAdjust="spacing" textLength="165" x="18" y="59.4766">-filename : std::string</text><text fill="#000000" font-family="Verdana" font-size="16" lengthAdjust="spacing" textLength="167" x="18" y="78.1016">-urlString : std::string</text><line style="stroke:#000000;stroke-width:1.0;" x1="13" x2="378" y1="85.875" y2="85.875"/><text fill="#000000" font-family="Verdana" font-size="16" lengthAdjust="spacing" textLength="355" x="18" y="104.7266">+url(std::string urlString, std::string filename)</text><text fill="#000000" font-family="Verdana" font-size="16" lengthAdjust="spacing" textLength="207" x="18" y="123.3516">+displayFile(int = -1) : void</text></g><!--SRC=[ROynRy9038Ld_2lS2H15b8KXKWSMf2pjm2yu4fEONdpHsQdKLlntZekAeggJhVU-Ppq_MKiTOUyT2-W7I- -Ywx3oJlK7PdkpoAV1gAo27FcRy6KY7e9O5hSxk0B0PexlfmjLfZZV0EGZE4IFwT8gpOLQNHIQqjBSzMFUdd4gdzcJk8wMC5l_xbXCaMGyid-TLSsQVlawfEI2nV0LrzjbeZu3rxdZMBEKbYARauemadV6GRJbVYm-ClkcYTHawt_c3hsH6jKO7c_V0000]--></g></svg>